<svg width="165" height="30" viewBox="0 0 165 30" fill="none" xmlns="http://www.w3.org/2000/svg">
<path d="M10.376 5.696H2.744C1.592 5.696 0.8 5.264 0.8 3.86C0.8 2.456 1.592 2.024 2.744 2.024H11.564C16.604 2.024 17.9 3.968 17.9 7.892C17.9 9.044 17.432 11.024 16.532 13.184C17.576 13.292 18.26 13.76 18.26 15.02C18.26 16.424 17.468 16.856 16.316 16.856H7.1C6.344 18.404 5.912 20.168 5.912 21.86C5.912 23.876 6.776 24.56 9.044 24.56C11.06 24.56 13.04 24.128 15.812 22.58C16.424 22.256 16.784 22.292 16.892 22.292C17.72 22.292 18.62 22.868 18.62 23.876C18.62 24.74 18.332 25.46 17.072 26.144C14.336 27.62 11.312 28.232 7.856 28.232C2.816 28.232 1.16 26.324 1.16 22.364C1.16 20.672 1.592 18.692 2.42 16.856C1.304 16.82 0.62 16.352 0.62 15.02C0.62 13.616 1.412 13.184 2.564 13.184H11.852C12.68 11.42 13.148 9.656 13.148 8.396C13.148 6.38 12.644 5.696 10.376 5.696ZM26.432 2.852V12.32H29.096C30.248 12.32 31.04 12.752 31.04 14.156C31.04 15.56 30.248 15.992 29.096 15.992H26.432V27.8C26.432 28.952 25.64 29.744 24.056 29.744C22.472 29.744 21.68 28.952 21.68 27.8V2.852C21.68 1.7 22.472 0.907999 24.056 0.907999C25.64 0.907999 26.432 1.7 26.432 2.852ZM59.9193 2.852V19.34C59.9193 20.492 59.1273 21.284 57.5433 21.284C55.9593 21.284 55.1673 20.492 55.1673 19.34V13.976H50.5233V14.84C50.5233 15.992 49.7313 16.784 48.1473 16.784C47.1393 16.784 46.4553 16.496 46.0593 15.92C44.0073 16.532 42.0273 16.784 39.5433 16.784C35.0793 16.784 33.5673 14.624 33.5673 11.924V11.6C33.5673 9.584 34.0353 7.352 34.9353 5.336C33.8193 5.336 33.0273 4.904 33.0273 3.5C33.0273 2.096 33.8193 1.664 34.9713 1.664H49.6593C50.8113 1.664 51.6033 2.096 51.6033 3.5C51.6033 4.148 51.4233 4.616 51.0993 4.904H55.1673V2.852C55.1673 1.7 55.9593 0.907999 57.5433 0.907999C59.1273 0.907999 59.9193 1.7 59.9193 2.852ZM44.9073 26.072C49.5153 26.072 53.4033 25.46 58.0113 24.632C58.2273 24.596 58.4433 24.596 58.6233 24.596C59.0553 24.596 60.6393 24.704 60.6393 26.252C60.6393 27.116 60.2073 27.944 59.0913 28.196C54.0153 29.24 49.2633 29.744 43.7553 29.744C39.5433 29.744 36.1593 28.988 35.9793 25.208V24.668C35.9793 22.94 36.3393 21.32 37.3113 19.592C37.8513 18.62 38.7153 18.224 39.5793 18.224C40.7313 18.224 41.9193 18.944 41.9193 20.06V20.132C41.9193 21.248 40.7313 21.824 40.7313 24.128C40.7313 25.676 41.8833 26.072 44.9073 26.072ZM40.6953 13.112C42.5313 13.112 44.0433 12.824 45.7713 12.248V5.336H39.6873C38.8593 7.1 38.3193 9.044 38.3193 10.808C38.3193 12.14 39.0033 13.112 40.6953 13.112ZM50.5233 8.576V10.304H55.1673V8.576H50.5233ZM90.5284 26.144C87.7924 27.62 84.7684 28.232 81.3124 28.232C76.2724 28.232 74.6164 25.964 74.6164 21.644C74.6164 17 75.1564 11.276 76.5604 5.696H76.0204C74.8684 5.696 74.0764 5.264 74.0764 3.86C74.0764 2.456 74.8684 2.024 76.0204 2.024H89.7724C90.9244 2.024 91.7164 2.456 91.7164 3.86C91.7164 5.264 90.9244 5.696 89.7724 5.696H81.3124C80.7004 8.144 80.2684 10.52 79.9444 12.824H89.7724C90.9244 12.824 91.7164 13.256 91.7164 14.66C91.7164 16.064 90.9244 16.496 89.7724 16.496H79.5484C79.4044 18.116 79.3684 19.664 79.3684 21.14C79.3684 23.48 80.2324 24.56 82.5004 24.56C84.5164 24.56 86.4964 24.128 89.2684 22.58C89.8804 22.256 90.2404 22.292 90.3484 22.292C91.1764 22.292 92.0764 22.868 92.0764 23.876C92.0764 24.74 91.7884 25.46 90.5284 26.144ZM99.8884 2.852V12.32H102.552C103.704 12.32 104.496 12.752 104.496 14.156C104.496 15.56 103.704 15.992 102.552 15.992H99.8884V27.8C99.8884 28.952 99.0964 29.744 97.5124 29.744C95.9284 29.744 95.1364 28.952 95.1364 27.8V2.852C95.1364 1.7 95.9284 0.907999 97.5124 0.907999C99.0964 0.907999 99.8884 1.7 99.8884 2.852ZM115.556 28.232C111.416 28.232 106.412 26.108 106.412 17.576C106.412 11.96 108.788 8.072 111.56 5.48C110.732 4.904 110.192 4.328 110.192 3.5C110.192 2.492 110.84 1.664 112.1 1.664C112.856 1.664 114.116 2.024 115.556 2.708C116.996 2.024 118.256 1.664 119.012 1.664C120.272 1.664 120.92 2.492 120.92 3.5C120.92 4.328 120.38 4.904 119.552 5.48C122.252 8.072 124.7 11.924 124.7 17.576C124.7 26.108 119.696 28.232 115.556 28.232ZM133.376 2.852V27.8C133.376 28.952 132.584 29.744 131 29.744C129.416 29.744 128.624 28.952 128.624 27.8V2.852C128.624 1.7 129.416 0.907999 131 0.907999C132.584 0.907999 133.376 1.7 133.376 2.852ZM119.948 17.576C119.948 12.284 117.86 9.656 115.556 7.928C113.252 9.656 111.164 12.284 111.164 17.576C111.164 23.012 113.216 24.56 115.556 24.56C117.896 24.56 119.948 23.012 119.948 17.576ZM164.342 2.852V27.8C164.342 28.952 163.55 29.744 161.966 29.744C160.382 29.744 159.59 28.952 159.59 27.8V16.352H154.946V26.288C154.946 27.44 154.154 28.232 152.57 28.232C151.562 28.232 150.878 27.944 150.482 27.368C148.574 27.98 146.738 28.232 144.686 28.232C139.646 28.232 137.99 25.964 137.99 21.644C137.99 17 138.53 11.276 139.934 5.696H139.394C138.242 5.696 137.45 5.264 137.45 3.86C137.45 2.456 138.242 2.024 139.394 2.024H154.082C155.234 2.024 156.026 2.456 156.026 3.86C156.026 4.868 155.63 5.336 154.946 5.588V12.68H159.59V2.852C159.59 1.7 160.382 0.907999 161.966 0.907999C163.55 0.907999 164.342 1.7 164.342 2.852ZM145.874 24.56C147.278 24.56 148.61 24.308 150.194 23.732V5.696H144.686C143.282 11.204 142.742 16.532 142.742 21.14C142.742 23.48 143.606 24.56 145.874 24.56Z" fill="#D00A0A"/>
</svg>
