<svg width="30" height="32" viewBox="0 0 30 32" fill="none" xmlns="http://www.w3.org/2000/svg">
<path fill-rule="evenodd" clip-rule="evenodd" d="M17.4202 2.75667L29.1779 1.53983H29.1769C29.3167 1.52533 29.4203 1.37207 29.4068 1.19913L29.3343 0.280586C29.3209 0.108683 29.1956 -0.0176553 29.0558 0.00202034L17.0073 1.65415C16.9909 1.65254 16.9742 1.65169 16.9573 1.65169C16.8933 1.65169 16.8334 1.66404 16.7776 1.68565L1.52123 3.77767C1.38454 3.79631 1.28512 3.94751 1.29858 4.11734C1.31205 4.28613 1.43321 4.41144 1.57094 4.39694L4.89745 4.05267C4.78481 4.17976 4.67348 4.31745 4.57169 4.47074L1.73144 4.62994C1.59371 4.63822 1.48705 4.78113 1.49119 4.95096C1.49533 5.12079 1.61028 5.25542 1.74801 5.25231L4.22976 5.19599C4.15799 5.43877 4.11529 5.71298 4.11529 6.02692C4.11529 7.19899 4.71156 7.81715 5.19077 8.31396L5.19227 8.31551L5.19387 8.31717C5.63219 8.771 5.9793 9.13038 5.9793 9.88439C5.9793 10.6393 5.63238 10.9987 5.19227 11.4533C4.71177 11.9503 4.11529 12.5686 4.11529 13.7418C4.11529 14.9139 4.71156 15.5321 5.19077 16.0289L5.19227 16.0304L5.19387 16.0321C5.63219 16.4859 5.9793 16.8453 5.9793 17.5993C5.9793 17.8851 6.21126 18.1171 6.49708 18.1171C6.78289 18.1171 7.01486 17.8851 7.01486 17.5993C7.01486 16.4272 6.41859 15.8091 5.93938 15.3123L5.93787 15.3107L5.93628 15.3091C5.49795 14.8552 5.15085 14.4959 5.15085 13.7418C5.15085 12.9869 5.49776 12.6276 5.93787 12.173C6.41837 11.6759 7.01486 11.0577 7.01486 9.88439C7.01486 8.71232 6.41858 8.09416 5.93937 7.59735L5.93787 7.5958L5.93627 7.59414C5.49795 7.14031 5.15085 6.78093 5.15085 6.02692C5.15085 5.67045 5.2282 5.40218 5.35619 5.17043L7.7425 5.11628C7.65579 5.37837 7.60307 5.67812 7.60307 6.02692C7.60307 7.19899 8.19934 7.81715 8.67855 8.31396L8.68005 8.31551C9.11913 8.77012 9.46605 9.12946 9.46605 9.88439C9.46605 10.6393 9.11913 10.9986 8.67902 11.4533L8.67752 11.4548C8.19831 11.9516 7.60204 12.5698 7.60204 13.7418C7.60204 14.9139 8.19831 15.5321 8.67752 16.0289L8.67902 16.0304C9.1181 16.4851 9.46501 16.8444 9.46501 17.5993C9.46501 17.8851 9.69698 18.1171 9.98279 18.1171C10.2686 18.1171 10.5006 17.8851 10.5006 17.5993C10.5006 16.4272 9.9043 15.8091 9.42509 15.3123L9.42359 15.3107C8.98451 14.8561 8.6376 14.4968 8.6376 13.7418C8.6376 12.9869 8.98451 12.6276 9.42359 12.173C9.90409 11.6759 10.5006 11.0577 10.5006 9.88439H10.5016C10.5016 8.71232 9.90533 8.09416 9.42613 7.59735L9.42462 7.5958C8.98555 7.14119 8.63863 6.78185 8.63863 6.02692C8.63863 5.62859 8.73522 5.34039 8.89097 5.09021L11.2563 5.03654C11.153 5.31719 11.0887 5.64222 11.0887 6.02692C11.0887 7.19899 11.685 7.81715 12.1642 8.31396L12.1657 8.31551L12.1673 8.31717C12.6056 8.771 12.9527 9.13038 12.9527 9.88439C12.9527 10.6393 12.6058 10.9986 12.1657 11.4533L12.1642 11.4548C11.685 11.9516 11.0887 12.5698 11.0887 13.7418C11.0887 14.9139 11.685 15.5321 12.1642 16.0289L12.1657 16.0304L12.1673 16.0321C12.6056 16.4859 12.9527 16.8453 12.9527 17.5993C12.9527 17.8851 13.1847 18.1171 13.4705 18.1171C13.7563 18.1171 13.9883 17.8851 13.9883 17.5993C13.9883 16.4272 13.392 15.8091 12.9128 15.3123L12.9113 15.3107L12.9097 15.3091C12.4714 14.8552 12.1243 14.4959 12.1243 13.7418C12.1243 12.9869 12.4712 12.6276 12.9113 12.173L12.9128 12.1714C13.392 11.6746 13.9883 11.0565 13.9883 9.88439C13.9883 8.71232 13.392 8.09416 12.9128 7.59735L12.9113 7.5958L12.9097 7.59414C12.4714 7.14031 12.1243 6.78093 12.1243 6.02692C12.1243 5.5853 12.243 5.27905 12.4297 5.00991L14.7739 4.95671C14.6527 5.25517 14.5755 5.60519 14.5755 6.02693C14.5755 7.199 15.1718 7.81716 15.651 8.31397L15.6525 8.31552L15.6541 8.31718C16.0924 8.77101 16.4395 9.13039 16.4395 9.8844C16.4395 10.6393 16.0926 10.9987 15.6525 11.4533L15.651 11.4548C15.1718 11.9516 14.5755 12.5698 14.5755 13.7419C14.5755 14.9139 15.1718 15.5321 15.651 16.0289L15.6525 16.0304L15.6541 16.0321C16.0924 16.4859 16.4395 16.8453 16.4395 17.5993C16.4395 17.8851 16.6715 18.1171 16.9573 18.1171C17.2431 18.1171 17.4751 17.8851 17.4751 17.5993C17.4751 16.4273 16.8788 15.8091 16.3996 15.3123L16.3981 15.3107L16.3965 15.3091C15.9581 14.8552 15.611 14.4959 15.611 13.7419C15.611 12.9869 15.958 12.6276 16.3981 12.173L16.3996 12.1714C16.8788 11.6746 17.4751 11.0565 17.4751 9.8844C17.4751 8.71233 16.8788 8.09416 16.3996 7.59736L16.3981 7.59581L16.3965 7.59415C15.9581 7.14032 15.611 6.78094 15.611 6.02693C15.611 5.54073 15.7549 5.21862 15.9749 4.92945L29.4462 4.62373C29.587 4.62062 29.6978 4.47564 29.6936 4.3027L29.6698 3.38002C29.6657 3.20604 29.5476 3.07038 29.4068 3.07867L16.9848 3.77495C17.1767 3.49759 17.3393 3.16872 17.4202 2.75667ZM16.3092 2.87165L13.8323 3.12798C13.7126 3.46703 13.5359 3.74202 13.3452 3.97896L15.5404 3.85592C15.5786 3.81587 15.6164 3.77675 15.6535 3.73835L15.6535 3.73834C15.9296 3.45246 16.1693 3.20425 16.3092 2.87165ZM12.5977 3.25576L10.1775 3.50622C10.0347 3.76952 9.8595 3.98915 9.68324 4.18422L11.8636 4.06201C11.9654 3.94659 12.0685 3.83993 12.1668 3.73833C12.3269 3.57278 12.4746 3.4198 12.5977 3.25576ZM8.76281 3.65264L6.4386 3.89317C6.29828 4.07872 6.1471 4.24085 6.0031 4.3905L8.20646 4.267C8.36064 4.06889 8.52628 3.89741 8.68005 3.73833C8.70805 3.70943 8.73565 3.68091 8.76281 3.65264ZM29.0734 20.0805C29.0734 24.3685 25.4466 28.05 20.268 29.6411V31.19H8.80434V29.641C3.62613 28.0499 0 24.3685 0 20.0805H29.0734Z" fill="#D4151D"/>
</svg>
